<svg xmlns="http://www.w3.org/2000/svg" viewBox="0 0 128 128">
  <!-- Background -->
  <path d="M64 0 L20 48 H44 L64 24 L84 48 H108 L64 0" fill="#000"/>
  <path d="M64 128 L108 80 H84 L64 104 L44 80 H20 L64 128" fill="#000"/>
  <!-- Dog ears -->
  <path d="M20 48 Q0 58 20 68 L44 80 L44 48 Z" fill="#000"/>
  <path d="M108 48 Q128 58 108 68 L84 80 L84 48 Z" fill="#000"/>
  <!-- Dog face -->
  <circle cx="64" cy="64" r="36" fill="#fff"/>
  <!-- Eyes -->
  <circle cx="52" cy="58" r="5" fill="#000"/>
  <circle cx="76" cy="58" r="5" fill="#000"/>
  <!-- Nose and mouth -->
  <path d="M64 72 Q58 78 64 84 Q70 78 64 72" fill="#000"/>
  <style>
    path, circle {
      transition: fill 0.3s;
    }
    @media (prefers-color-scheme: dark) {
      path, circle {
        fill: #fff;
      }
      circle[fill="#fff"], path[fill="#fff"] {
        fill: #000;
      }
    }
  </style>
</svg>
